<svg width="63" height="90" viewBox="0 0 63 90" fill="none" xmlns="http://www.w3.org/2000/svg">
<g clip-path="url(#clip0)">
<path d="M28.9995 75C28.9995 81.7863 23.1801 87.5001 15.7527 87.5001C8.3253 87.5001 2.50586 81.7863 2.50586 75C2.50586 68.2138 8.3253 62.5 15.7527 62.5H28.9995V75Z" stroke="white" stroke-width="5"/>
<path d="M2.50586 45C2.50586 38.2138 8.32529 32.5 15.7527 32.5H28.9995V57.5H15.7527C8.32529 57.5 2.50586 51.7862 2.50586 45Z" stroke="white" stroke-width="5"/>
<path d="M2.50586 15C2.50586 8.21379 8.32529 2.5 15.7527 2.5H28.9995V27.5H15.7527C8.32529 27.5 2.50586 21.7862 2.50586 15Z" stroke="white" stroke-width="5"/>
<path d="M34 2.5H47.2469C54.6743 2.5 60.4937 8.21379 60.4937 15C60.4937 21.7862 54.6743 27.5 47.2469 27.5H34V2.5Z" stroke="white" stroke-width="5"/>
<path d="M60.4937 45C60.4937 51.7862 54.6743 57.5 47.2469 57.5C39.8194 57.5 34 51.7862 34 45C34 38.2138 39.8194 32.5 47.2469 32.5C54.6743 32.5 60.4937 38.2138 60.4937 45Z" stroke="white" stroke-width="5"/>
</g>
<defs>
<clipPath id="clip0">
<rect width="63" height="90" fill="white"/>
</clipPath>
</defs>
</svg>
