<svg width="62" height="62" viewBox="0 0 62 62" fill="none" xmlns="http://www.w3.org/2000/svg">
<path d="M44.8896 0H17.1093C7.67523 0 0 7.6756 0 17.1097V44.89C0 54.3244 7.67523 61.9996 17.1093 61.9996H44.8896C54.3244 61.9996 61.9996 54.324 61.9996 44.89V17.1097C62 7.6756 54.3244 0 44.8896 0ZM56.4991 44.89C56.4991 51.2912 51.2912 56.4987 44.89 56.4987H17.1093C10.7084 56.4991 5.50091 51.2912 5.50091 44.89V17.1097C5.50091 10.7088 10.7084 5.50091 17.1093 5.50091H44.8896C51.2908 5.50091 56.4987 10.7088 56.4987 17.1097V44.89H56.4991Z" fill="white"/>
<path d="M30.9997 15.0248C22.1905 15.0248 15.0239 22.1914 15.0239 31.0005C15.0239 39.8093 22.1905 46.9755 30.9997 46.9755C39.8088 46.9755 46.9754 39.8093 46.9754 31.0005C46.9754 22.1914 39.8088 15.0248 30.9997 15.0248ZM30.9997 41.4743C25.2241 41.4743 20.5248 36.7758 20.5248 31.0002C20.5248 25.2242 25.2237 20.5254 30.9997 20.5254C36.7756 20.5254 41.4745 25.2242 41.4745 31.0002C41.4745 36.7758 36.7753 41.4743 30.9997 41.4743Z" fill="white"/>
<path d="M47.6453 10.3604C46.5855 10.3604 45.5443 10.7895 44.7959 11.5413C44.0437 12.2894 43.6113 13.3309 43.6113 14.3944C43.6113 15.4546 44.0441 16.4957 44.7959 17.2475C45.544 17.9957 46.5855 18.4284 47.6453 18.4284C48.7088 18.4284 49.7467 17.9957 50.4985 17.2475C51.2503 16.4957 51.6793 15.4542 51.6793 14.3944C51.6793 13.3309 51.2503 12.2894 50.4985 11.5413C49.7503 10.7895 48.7088 10.3604 47.6453 10.3604Z" fill="white"/>
</svg>
