<svg width="87" height="87" viewBox="0 0 87 87" fill="none" xmlns="http://www.w3.org/2000/svg">
<g clip-path="url(#clip0)">
<path d="M80.6168 26.7747L53.2739 0.923265C52.7235 0.372857 51.8003 0 50.877 0H8.95722C6.93314 0 5.26416 1.66898 5.26416 3.69306V83.3069C5.26416 85.331 6.93314 87 8.95722 87H78.0423C80.0664 87 81.7354 85.331 81.7354 83.1294V29.3669C81.7354 28.4437 81.3625 27.5204 80.6168 26.7747ZM54.3925 12.1267L69.076 26.0467H54.3925V12.1267ZM74.5268 79.7914H12.455V7.38612H47.1839V29.5445C47.1839 31.5686 48.8529 33.2375 50.877 33.2375H74.5268V79.7914Z" fill="white"/>
<path d="M53.5932 53.6737C51.4093 53.6737 49.6161 51.8982 49.6161 49.6966C49.6161 47.4949 51.3916 45.7194 53.5932 45.7194C54.694 45.7194 55.7238 46.1633 56.4873 46.98C57.4993 48.0453 59.1683 48.0986 60.2336 47.0866C61.2989 46.0745 61.3522 44.4055 60.3402 43.3402C58.6002 41.476 56.1322 40.4106 53.5755 40.4106C48.462 40.4106 44.2896 44.5831 44.2896 49.6966C44.2896 54.81 48.462 58.9825 53.5755 58.9825C55.7593 58.9825 57.5526 60.758 57.5526 62.9596C57.5526 65.1613 55.7771 66.9368 53.5755 66.9368C52.4746 66.9368 51.4449 66.4929 50.6814 65.6761C49.6693 64.6108 48.0004 64.5576 46.9351 65.5696C45.8698 66.5817 45.8165 68.2506 46.8285 69.3159C48.5685 71.1802 51.0365 72.2455 53.5932 72.2455C58.7067 72.2455 62.8791 68.0731 62.8791 62.9596C62.8791 57.8462 58.7244 53.6737 53.5932 53.6737Z" fill="white"/>
<path d="M37.8269 40.4106C36.3532 40.4106 35.1637 41.6002 35.1637 43.0739V64.0604C35.1637 65.6584 33.8675 66.9368 32.2873 66.9368C30.6894 66.9368 29.411 65.6406 29.411 64.0604V62.0541C29.411 60.5804 28.2214 59.3908 26.7477 59.3908C25.2741 59.3908 24.0845 60.5804 24.0845 62.0541V64.0604C24.0845 68.5702 27.7598 72.2455 32.2696 72.2455C36.7794 72.2455 40.4547 68.5702 40.4547 64.0604V43.0739C40.4902 41.6002 39.3006 40.4106 37.8269 40.4106Z" fill="white"/>
</g>
<defs>
<clipPath id="clip0">
<rect width="87" height="87" fill="white"/>
</clipPath>
</defs>
</svg>
