<svg width="82" height="90" viewBox="0 0 82 90" fill="none" xmlns="http://www.w3.org/2000/svg">
<g clip-path="url(#clip0)">
<path d="M0 0.010376V89.4066H81.4666V0.010376H0ZM3.39444 3.83073H78.0722V85.5863H3.39444V3.83073Z" fill="white"/>
<path d="M59.1653 37.5633C58.6561 37.2958 58.0112 37.1812 57.1965 37.1812C52.9195 37.1812 50.0682 40.887 50.0682 47.0377C50.0682 54.0672 52.9874 56.8943 56.7892 56.8943C57.6039 56.8943 58.4864 56.7796 59.1314 56.474V37.5633H59.1653ZM43.9582 47.3434C43.9582 38.4419 49.0499 31.4889 57.4002 31.4889C58.113 31.4889 58.4864 31.4889 59.1653 31.5653V21.6324C59.1653 21.4032 59.335 21.2504 59.5048 21.2504H64.9698C65.2414 21.2504 65.3092 21.365 65.3092 21.556V56.474C65.3092 57.5055 65.3092 58.8044 65.479 60.218C65.479 60.4854 65.479 60.5236 65.2753 60.6382C62.424 62.1663 59.4369 62.854 56.5855 62.854C49.2196 62.854 43.9582 57.7347 43.9582 47.3434ZM32.3832 41.1544L41.8876 61.8989C42.0573 62.2045 41.9555 62.5102 41.6839 62.5102H35.7776C35.4042 62.5102 35.2345 62.3956 35.0648 62.0135C32.8923 56.9707 30.6859 51.7368 28.4117 46.3119H28.3438C26.3071 51.4311 24.0668 57.0089 21.8943 62.0517C21.7246 62.3574 21.5549 62.472 21.2833 62.472H15.6485C15.3091 62.472 15.2752 62.1663 15.4449 61.9371L24.7457 41.8039L15.7504 21.7852C15.5467 21.4796 15.7504 21.2122 15.988 21.2122H21.8264C22.1659 21.2122 22.3356 21.2886 22.4374 21.6324C24.5759 26.7135 26.7484 31.7181 28.785 36.8374H28.8529C30.8217 31.7945 32.9942 26.7135 35.0648 21.7088C35.2345 21.4032 35.3363 21.2122 35.6758 21.2122H41.1408C41.4124 21.2122 41.5142 21.4414 41.3445 21.7852L32.3832 41.1544Z" fill="white"/>
</g>
<defs>
<clipPath id="clip0">
<rect width="81.4666" height="89.4146" fill="white"/>
</clipPath>
</defs>
</svg>
