<svg width="92" height="100" viewBox="0 0 92 100" fill="none" xmlns="http://www.w3.org/2000/svg">
<path d="M90 48.9704C90 50.6306 89.1026 52.5773 86.9816 54.6666C84.8767 56.7401 81.7343 58.7777 77.7119 60.5728C69.6772 64.1583 58.4605 66.629 46 66.629C33.5938 66.629 22.3865 63.7142 14.3301 59.8937C10.2967 57.9809 7.12244 55.8741 4.99053 53.854C2.78624 51.7653 2 50.066 2 48.9704C2 47.2366 2.89842 45.3303 4.98962 43.3513C7.07815 41.3748 10.2057 39.4809 14.2296 37.8368C22.2658 34.5533 33.4994 32.4193 46 32.4193C58.4917 32.4193 69.7243 34.6238 77.7635 37.9439C81.7891 39.6065 84.922 41.5111 87.0149 43.4793C89.1174 45.4566 90 47.3254 90 48.9704Z" stroke="white" stroke-width="4"/>
<path d="M68.1057 87.6524C66.6607 88.47 64.5245 88.6475 61.6616 87.8303C58.8205 87.0193 55.4996 85.2877 51.9565 82.6707C44.8794 77.4433 37.2056 68.8974 31.0698 58.0523C24.9607 47.2545 21.9788 36.0649 21.3369 27.1715C21.0155 22.7192 21.2862 18.919 21.9945 16.0688C22.727 13.1217 23.8188 11.6006 24.7724 11.0611C26.2814 10.2074 28.383 10.0506 31.1352 10.8962C33.8839 11.7407 37.0723 13.5302 40.4847 16.2228C47.2998 21.6002 54.6888 30.3266 60.8444 41.2066C66.9956 52.0788 70.6081 62.9408 71.6771 71.5726C72.2123 75.895 72.0974 79.5596 71.4149 82.3504C70.7293 85.1539 69.5374 86.8424 68.1057 87.6524Z" stroke="white" stroke-width="4"/>
<path d="M24.7722 88.0123C23.3272 87.1948 22.0748 85.4552 21.3008 82.5803C20.5327 79.7272 20.3065 75.9889 20.725 71.604C21.5607 62.8454 24.9337 51.8663 31.0695 41.0212C37.1787 30.2233 45.2343 21.9043 52.5267 16.7737C56.1776 14.2051 59.5744 12.4798 62.3824 11.6191C65.2857 10.7291 67.1519 10.8815 68.1054 11.421C69.6144 12.2748 70.8312 13.9954 71.5239 16.79C72.2157 19.5811 72.324 23.2357 71.7735 27.5475C70.6741 36.1588 66.9997 46.9868 60.8441 57.8668C54.6929 68.739 47.243 77.4299 40.3947 82.7919C36.9653 85.4769 33.765 87.2658 31.0213 88.1182C28.2651 88.9744 26.2039 88.8224 24.7722 88.0123Z" stroke="white" stroke-width="4"/>
<circle cx="45.9074" cy="49.6169" r="8.25403" fill="white"/>
</svg>
